<?xml version="1.0" encoding="utf-8"?>
<!-- Generator: Adobe Illustrator 17.0.0, SVG Export Plug-In . SVG Version: 6.00 Build 0)  -->
<!DOCTYPE svg PUBLIC "-//W3C//DTD SVG 1.1//EN" "http://www.w3.org/Graphics/SVG/1.1/DTD/svg11.dtd">
<svg version="1.1" id="Layer_1" xmlns="http://www.w3.org/2000/svg" xmlns:xlink="http://www.w3.org/1999/xlink" x="0px" y="0px"
	 width="1444px" height="585px" viewBox="0 0 1444 585" enable-background="new 0 0 1444 585" xml:space="preserve">
<g>
	<circle opacity="0.5" fill="#FFFFFF" cx="1105.263" cy="145.519" r="2.161"/>
	<circle opacity="0.5" fill="#FFFFFF" cx="437.333" cy="508.715" r="2.161"/>
	<circle opacity="0.5" fill="#FFFFFF" cx="453.406" cy="194.858" r="2.161"/>
	<circle opacity="0.5" fill="#FFFFFF" cx="396.35" cy="13.632" r="2.161"/>
	<circle opacity="0.5" fill="#FFFFFF" cx="689.986" cy="211.357" r="2.161"/>
	<circle opacity="0.5" fill="#FFFFFF" cx="1103.102" cy="6.805" r="2.161"/>
	<circle opacity="0.3" fill="#FFFFFF" cx="1298.295" cy="99.262" r="2.593"/>
	<circle opacity="0.3" fill="#FFFFFF" cx="898.979" cy="145.519" r="1.729"/>
	<circle opacity="0.3" fill="#FFFFFF" cx="208.765" cy="303.542" r="1.729"/>
	<circle opacity="0.3" fill="#FFFFFF" cx="1031.22" cy="319.83" r="1.729"/>
	<circle opacity="0.3" fill="#FFFFFF" cx="1182.476" cy="506.986" r="1.729"/>
	<circle opacity="0.3" fill="#FFFFFF" cx="986.275" cy="135.915" r="1.729"/>
	<circle opacity="0.3" fill="#FFFFFF" cx="95.765" cy="161.25" r="1.729"/>
	<circle opacity="0.3" fill="#FFFFFF" cx="235.494" cy="171.252" r="1.729"/>
	<circle opacity="0.3" fill="#FFFFFF" cx="82.223" cy="330.748" r="1.729"/>
	<circle opacity="0.3" fill="#FFFFFF" cx="250.494" cy="478.148" r="1.729"/>
	<circle opacity="0.3" fill="#FFFFFF" cx="1184.204" cy="390.272" r="1.729"/>
	<circle opacity="0.3" fill="#FFFFFF" cx="900.707" cy="366.935" r="1.729"/>
	<circle opacity="0.3" fill="#FFFFFF" cx="838.257" cy="2.915" r="1.729"/>
	<circle opacity="0.3" fill="#FFFFFF" cx="1247.3" cy="209.629" r="1.729"/>
	<circle opacity="0.3" fill="#FFFFFF" cx="1198.034" cy="56.644" r="1.729"/>
	<circle opacity="0.3" fill="#FFFFFF" cx="657.986" cy="61.83" r="1.729"/>
	<circle opacity="0.3" fill="#FFFFFF" cx="1004.426" cy="58.373" r="1.729"/>
	<circle opacity="0.3" fill="#FFFFFF" cx="1057.149" cy="429.235" r="1.729"/>
	<circle opacity="0.3" fill="#FFFFFF" cx="982.818" cy="223.458" r="1.729"/>
	<circle opacity="0.3" fill="#FFFFFF" cx="822.054" cy="267.401" r="1.729"/>
	<circle opacity="0.3" fill="#FFFFFF" cx="1350.437" cy="474.655" r="1.729"/>
	<circle opacity="0.5" fill="#FFFFFF" cx="1267.179" cy="302.245" r="1.296"/>
	<g opacity="0.5">
		<path opacity="0.5" fill="#FFFFFF" d="M1299.406,148.087l72.338,48.235l12.496-96.978l0.145-1.121L1299.406,148.087z
			 M1349.856,148.401l-47.108-0.989l79.117-46.424L1349.856,148.401z M1349.892,149.511l19.984,44.233l-67.844-45.237
			L1349.892,149.511z M1350.842,148.921l32-47.399l-11.854,91.993L1350.842,148.921z"/>
		<circle fill="#2DEAC5" cx="1300.995" cy="148.014" r="1.663"/>
		<circle fill="#E59826" cx="1350.104" cy="148.969" r="1.663"/>
		<circle fill="#373A82" cx="1370.988" cy="194.858" r="1.663"/>
		<circle fill="#9C1764" cx="1383.691" cy="99.274" r="1.663"/>
	</g>
	<g opacity="0.5">
		<path opacity="0.5" fill="#FFFFFF" d="M0.075,485.191l72.338,48.235l12.496-96.978l0.145-1.121L0.075,485.191z M50.524,485.505
			l-47.108-0.989l79.117-46.424L50.524,485.505z M50.561,486.615l19.984,44.233L2.7,485.61L50.561,486.615z M51.51,486.025
			l32-47.399l-11.854,91.993L51.51,486.025z"/>
		<circle fill="#2DEAC5" cx="1.663" cy="485.118" r="1.663"/>
		<circle fill="#E59826" cx="50.772" cy="486.073" r="1.663"/>
		<circle fill="#373A82" cx="71.656" cy="531.962" r="1.663"/>
		<circle fill="#9C1764" cx="84.36" cy="436.377" r="1.663"/>
	</g>
	<g opacity="0.8">
		<path opacity="0.5" fill="#FFFFFF" d="M1056.586,267.972l70.301,8.573l-26.456-75.125l-0.305-0.868L1056.586,267.972z
			 M1093.4,249.709l-34.63,16.548l40.536-62.77L1093.4,249.709z M1093.833,250.503l30.75,24.851l-65.933-8.039L1093.833,250.503z
			 M1094.308,249.726l5.904-46.209l25.097,71.263L1094.308,249.726z"/>
		<circle fill="#2DEAC5" cx="1057.715" cy="267.337" r="1.355"/>
		<circle fill="#E59826" cx="1093.788" cy="250.031" r="1.355"/>
		<circle fill="#373A82" cx="1125.8" cy="275.758" r="1.355"/>
		<circle fill="#9C1764" cx="1100.005" cy="201.57" r="1.355"/>
	</g>
	<g opacity="0.6">
		<path opacity="0.5" fill="#FFFFFF" d="M1422.689,363.711l9.116-46.256l-51.165,13.905l-0.591,0.16L1422.689,363.711z
			 M1412.357,338.381l9.299,23.797l-39.699-29.97L1412.357,338.381z M1412.905,338.132l17.997-19.205l-8.549,43.382
			L1412.905,338.132z M1412.412,337.779l-30.391-6.171l48.535-13.19L1412.412,337.779z"/>
		<circle fill="#2DEAC5" cx="1422.322" cy="362.931" r="0.902"/>
		<circle fill="#E59826" cx="1412.589" cy="338.139" r="0.902"/>
		<circle fill="#373A82" cx="1431.229" cy="318.138" r="0.902"/>
		<circle fill="#9C1764" cx="1380.718" cy="331.65" r="0.902"/>
	</g>
	<g opacity="0.2">
		<path opacity="0.5" fill="#FFFFFF" d="M706.701,411.72l9.116-46.256l-51.165,13.905l-0.591,0.16L706.701,411.72z M696.369,386.389
			l9.299,23.797l-39.699-29.97L696.369,386.389z M696.917,386.14l17.997-19.205l-8.549,43.382L696.917,386.14z M696.424,385.787
			l-30.391-6.171l48.535-13.19L696.424,385.787z"/>
		<circle fill="#2DEAC5" cx="706.334" cy="410.939" r="0.902"/>
		<circle fill="#E59826" cx="696.601" cy="386.147" r="0.902"/>
		<circle fill="#373A82" cx="715.241" cy="366.147" r="0.902"/>
		<circle fill="#9C1764" cx="664.73" cy="379.659" r="0.902"/>
	</g>
	<g opacity="0.6">
		<path opacity="0.5" fill="#FFFFFF" d="M761.207,87.544l16.367,32.95l25.034-32.943l0.289-0.381L761.207,87.544z M779.649,98.298
			l-17.074-10.296l38.815-0.348L779.649,98.298z M779.428,98.713l-1.996,20.441l-15.351-30.902L779.428,98.713z M779.901,98.697
			l21.735-10.642l-23.747,31.25L779.901,98.697z"/>
		<circle fill="#2DEAC5" cx="761.805" cy="87.853" r="0.704"/>
		<circle fill="#E59826" cx="779.62" cy="98.558" r="0.704"/>
		<circle fill="#373A82" cx="777.605" cy="119.798" r="0.704"/>
		<circle fill="#9C1764" cx="802.421" cy="87.409" r="0.704"/>
	</g>
	<g opacity="0.6">
		<path opacity="0.5" fill="#FFFFFF" d="M375.505,160.238l16.367,32.95l25.034-32.943l0.289-0.381L375.505,160.238z
			 M393.947,170.991l-17.074-10.296l38.815-0.348L393.947,170.991z M393.726,171.406l-1.996,20.441l-15.351-30.902L393.726,171.406z
			 M394.199,171.39l21.735-10.642l-23.747,31.25L394.199,171.39z"/>
		<circle fill="#2DEAC5" cx="376.103" cy="160.546" r="0.704"/>
		<circle fill="#E59826" cx="393.918" cy="171.252" r="0.704"/>
		<circle fill="#373A82" cx="391.903" cy="192.491" r="0.704"/>
		<circle fill="#9C1764" cx="416.72" cy="160.103" r="0.704"/>
	</g>
	<g opacity="0.4">
		<path opacity="0.5" fill="#FFFFFF" d="M907.163,448.252l3.752,60.947l59.546-34.207l0.688-0.395L907.163,448.252z M928.419,476.6
			l-19.458-26.766l59.573,24.527L928.419,476.6z M927.814,477.092l-16.249,29.966l-3.52-57.16L927.814,477.092z M928.547,477.373
			l40.103-2.238l-56.485,32.449L928.547,477.373z"/>
		<circle fill="#2DEAC5" cx="907.879" cy="449.11" r="1.168"/>
		<circle fill="#E59826" cx="928.206" cy="476.98" r="1.168"/>
		<circle fill="#373A82" cx="911.413" cy="508.154" r="1.168"/>
		<circle fill="#9C1764" cx="970.268" cy="474.655" r="1.168"/>
	</g>
	<g opacity="0.3">
		<path opacity="0.5" fill="#FFFFFF" d="M1402.502,564.751l41.14,18.887l-1.505-50.887l-0.017-0.588L1402.502,564.751z
			 M1428.469,560.787l-24.303,3.344l36.885-30.341L1428.469,560.787z M1428.578,561.355l13.892,21.11l-38.584-17.713
			L1428.578,561.355z M1429.018,560.974l12.578-26.989l1.428,48.271L1429.018,560.974z"/>
		<circle fill="#2DEAC5" cx="1403.313" cy="564.584" r="0.866"/>
		<circle fill="#E59826" cx="1428.643" cy="561.059" r="0.866"/>
		<circle fill="#373A82" cx="1443.134" cy="582.947" r="0.866"/>
		<circle fill="#9C1764" cx="1441.849" cy="532.76" r="0.866"/>
	</g>
	<g opacity="0.3">
		<path opacity="0.5" fill="#FFFFFF" d="M881.319,296.997l31.659-2.34l-18.163-30.736l-0.21-0.355L881.319,296.997z M895.92,285.766
			l-13.79,10.287l12.37-31.126L895.92,285.766z M896.18,286.078l15.682,8.256l-29.692,2.195L896.18,286.078z M896.321,285.695
			l-1.42-20.833l17.23,29.156L896.321,285.695z"/>
		<circle fill="#2DEAC5" cx="881.76" cy="296.619" r="0.607"/>
		<circle fill="#E59826" cx="896.119" cy="285.874" r="0.607"/>
		<circle fill="#373A82" cx="912.432" cy="294.405" r="0.607"/>
		<circle fill="#9C1764" cx="894.641" cy="264.023" r="0.607"/>
	</g>
</g>
</svg>
